<?xml version="1.0" encoding="utf-8"?>
<!-- Generator: Adobe Illustrator 19.2.0, SVG Export Plug-In . SVG Version: 6.00 Build 0)  -->
<svg version="1.1" id="Layer_1" xmlns="http://www.w3.org/2000/svg" xmlns:xlink="http://www.w3.org/1999/xlink" x="0px" y="0px"
	 viewBox="0 0 400 400.4" style="enable-background:new 0 0 400 400.4;" xml:space="preserve">
<style type="text/css">
	.st0{fill:none;}
	.st1{fill:#39A9E0;}
	.st2{fill:#FFFFFF;}
	.st3{fill:url(#SVGID_1_);}
</style>
<pattern  x="75" y="75.8" width="200" height="200" patternUnits="userSpaceOnUse" id="Nueva_muestra_de_motivo_20" viewBox="0 -200 200 200" style="overflow:visible;">
	<g>
		<rect x="0" y="-200" class="st0" width="200" height="200"/>
		<path class="st1" d="M193.2-192.8c2.4,0.2,4.7-0.3,6.8-1.3v-5.9h-17.9C184.5-196.1,188.4-193.2,193.2-192.8z"/>
		<path class="st1" d="M10.5-4.5c-0.2,1.6-0.7,3-1.4,4.5h2.3c-0.1-0.2-0.1-0.4-0.2-0.5c0-0.1,0.1-0.3,0.2-0.3c0.3-0.2,0.4-0.1,0.7,0
			c0.1,0,0.2,0.2,0.2,0.3c0,0,0,0.1,0,0.1c0,0,0,0.1,0,0.1c0.2,0.1,0.4,0.2,0.7,0.3h15.6c-1.3-1.6-2.4-3.5-3.2-5.5
			C21.6-0.6,14.7-0.3,10.5-4.5z"/>
		<path class="st1" d="M47.4-200H31.8c1.4,1.3,3.1,2.4,5.1,2.9C40.7-196,44.8-197.2,47.4-200z"/>
		<path class="st1" d="M6.3-200H0v5.9C2.6-195.3,4.8-197.5,6.3-200z"/>
		<path class="st1" d="M9.1-200h2.3c0.5,1.1,2.4,1.8,3.5,2.1c1.8,0.6,4.4,1.1,6.1,0c0.3-0.2,0.3-0.7-0.1-0.7c-1.5-0.3-3,0.1-4.5-0.2
			c-0.9-0.2-1.8-0.4-2.6-0.8c-0.1,0-0.4-0.2-0.8-0.4h15.6c2.3,2.8,5.4,5,9.2,5.6c5,0.8,10-1.4,12.6-5.6h122.7
			c-3.8,4.3-9.4,6.8-15.5,7.3c-0.6,0-0.8,1-0.1,1.1c7.4,1.3,14.2-2.5,18.2-8.3h3.9c2.7,5.2,7.6,9.1,13.6,9.6
			c2.4,0.2,4.7-0.2,6.8-1.1v64.8c-5.7,0.7-11.9-2.8-13-10.3c-0.1-0.9-1.3-0.8-1.7-0.2c-2.1,2.9-9.1,9.3-11.7,2.7
			c-0.4-0.9-2-0.9-1.9,0.3c0.5,6.6-5,13.7-12.1,12.5c-6.2-1-10.1-7.1-9.6-13.1c0.1-0.6-1-0.8-1.1-0.2c-1.5,7,3.2,14.4,10.5,15.4
			c7.2,1,13.2-4.8,14.2-11.5c3.4,3.2,8.8,0,12-3.5c1.9,7.1,8.3,10.5,14.4,9.9v63.1c-3.2,0.3-6.4-1.2-8-5.3c-0.3-0.7-1.5-0.9-1.7,0
			c-1.3,5.9-5.3,10.1-11.1,11.9c-0.8,0.3-0.5,1.4,0.4,1.3c5.7-1.2,10-5.2,11.8-10.5c2,3.3,5.3,4.6,8.6,4.4V0h-17.9
			c-1.9-3-2.8-6.7-2.7-10.2c0.1-1.3-1.8-1.2-1.9,0c-0.4,4.1-2,7.5-4.4,10.2H50.3c0.5-0.8,0.9-1.6,1.2-2.5C52-4,49.7-4.6,49.2-3.1
			c-0.4,1.2-1.1,2.2-1.9,3.1H31.8c-2.4-2.3-4-5.5-5-8.6c-0.3-0.9-1.8-1.3-2.2-0.3c-2.9,6.5-11,6.7-14.1,0.2C10-9.7,8.1-9.2,8.2-8.1
			C8.4-5.2,7.7-2.4,6.3,0H0v-59.8C3.1-60,6.3-61.4,8.6-64c2.6,9.3,13.4,15.8,22.3,9.4c0.6-0.4,0.3-1.6-0.5-1.3
			c-9,3.3-18.9,0.5-20.3-10.3c-0.1-0.9-1.2-1.3-1.8-0.5c-1.9,2.8-5.2,4.8-8.3,5.1v-63.1c5.2-0.5,10.2-3.9,11.8-10.3
			c0.3-1.2-1.5-1.7-1.9-0.5c-1.5,5.4-5.6,8.4-9.9,8.9v-64.8C4-193,7.3-196.1,9.1-200z M191.4-54.5c-0.3,0.1-0.3,0.6,0.1,0.6
			c1.2-0.2,2.3-0.7,3.1-1.5c0.7-0.7,1.7-2.1,1.1-3.1c-0.1-0.3-0.5-0.3-0.8-0.1c-0.3,0.3-0.3,0.7-0.5,1.1c-0.1,0.5-0.4,0.9-0.6,1.3
			C193.2-55.5,192.4-54.8,191.4-54.5z M186.4-53.9c1.5-0.1,2.9-0.8,3.9-1.8c0.8-0.9,1.9-2.5,1.5-3.7c-0.1-0.2-0.3-0.3-0.5-0.1
			c-0.3,0.4-0.4,0.9-0.7,1.3c-0.3,0.6-0.7,1.1-1.1,1.5c-0.9,0.9-2,1.5-3.3,1.9C185.8-54.6,185.9-53.8,186.4-53.9z M191.2-121.1
			c-1-0.6-2.1-0.8-3.2-1.4c-1.1-0.6-2.1-1.4-2.9-2.4c-0.2-0.2-0.5,0.1-0.4,0.3c1.3,2,3.6,4.4,6.2,4.1
			C191.4-120.5,191.5-120.9,191.2-121.1z M184.2-129c0.6,1.4,1.5,2.6,2.7,3.6c1,0.8,2.3,1.8,3.6,1.8c0.5,0,0.6-0.6,0.2-0.9
			c-1-0.7-2.3-1-3.3-1.8c-1.1-0.8-2-1.8-2.6-3C184.6-129.8,184-129.4,184.2-129z M177.3-197.2c1.9,2.9,4.6,5.1,7.5,6.9
			c0.7,0.4,1.3-0.7,0.6-1.1c-2.8-1.8-5.1-4.1-7.2-6.6C177.8-198.5,176.9-197.7,177.3-197.2z M176.4-192.7c1.1,1.9,3.4,4,5.8,3.8
			c0.4,0,0.5-0.6,0.1-0.8c-1-0.4-1.9-0.6-2.9-1.1c-1-0.6-1.7-1.4-2.4-2.3C176.8-193.5,176.2-193.1,176.4-192.7z M53-160.3
			c0.2-0.5-0.6-0.8-0.9-0.4c-1.7,2.4-4,4-7.1,4.1c-0.7,0-0.7,1,0,1C48.3-155.3,51.7-157.2,53-160.3z M85.3-158.7
			c-0.9-0.5-2-0.6-3-1.2c-1.1-0.7-1.9-1.5-2.5-2.6c-0.2-0.3-0.7,0-0.5,0.3c0.9,2,3.4,4.7,5.8,4.4C85.5-157.9,85.6-158.5,85.3-158.7z
			 M80.3-158.1c-0.4-0.4-1.1,0.1-0.7,0.6c1.6,2.1,4.5,3.6,7.1,2.6c0.5-0.2,0.5-1-0.1-1C84.2-155.9,82-156.3,80.3-158.1z M66.3-125.9
			c-0.3-0.7-1.5-0.9-1.7,0c-1.3,5.9-5.3,10.1-11.1,11.9c-0.8,0.3-0.5,1.4,0.4,1.3c5.7-1.2,10-5.2,11.8-10.5
			c3.9,6.3,12.3,5.5,17.2,0.2c2.6,9.3,13.4,15.8,22.3,9.4c0.6-0.4,0.3-1.6-0.5-1.3c-9,3.3-18.9,0.5-20.3-10.3
			c-0.1-0.9-1.2-1.3-1.8-0.5C78.6-119.9,69.4-117.8,66.3-125.9z M65.7-113c1.2-0.2,2.3-0.7,3.1-1.5c0.7-0.7,1.7-2.1,1.1-3.1
			c-0.1-0.3-0.5-0.3-0.8-0.1c-0.3,0.3-0.3,0.7-0.5,1.1c-0.1,0.5-0.4,0.9-0.6,1.3c-0.6,0.9-1.4,1.5-2.4,1.8
			C65.4-113.5,65.4-113,65.7-113z M66.2-118.4c-0.1-0.2-0.3-0.3-0.5-0.1c-0.3,0.4-0.4,0.9-0.7,1.3c-0.3,0.6-0.7,1.1-1.1,1.5
			c-0.9,0.9-2,1.5-3.3,1.9c-0.5,0.1-0.4,0.9,0.1,0.9c1.5-0.1,2.9-0.8,3.9-1.8C65.5-115.6,66.5-117.2,66.2-118.4z M57.1-159.4
			c0-0.5-0.5-0.7-0.9-0.4c-0.3,0.3-0.5,0.6-0.7,1c-0.3,0.5-0.7,0.9-1.2,1.3c-0.9,0.7-2,1.1-3.2,1.2c-0.5,0-0.5,0.8,0,0.8
			c1.4,0.1,2.8-0.2,3.9-0.9C55.9-157,57.2-158.2,57.1-159.4z M75.2-41.7c-1-0.4-1.9-0.6-2.9-1.1c-1-0.6-1.7-1.4-2.4-2.3
			c-0.3-0.4-0.9,0-0.6,0.4c1.1,1.9,3.4,4,5.8,3.8C75.5-41,75.6-41.5,75.2-41.7z M78.4-43.4c-2.8-1.8-5.1-4.1-7.2-6.6
			c-0.5-0.5-1.4,0.2-1,0.8c1.9,2.9,4.6,5.1,7.5,6.9C78.5-41.8,79.1-42.9,78.4-43.4z M109.9-47c-2.3,0.4-4.6,0.1-6.1-1.9
			c-0.2-0.3-0.7,0-0.5,0.3c1.4,2.4,4.4,3.9,7.1,2.7C111.1-46.2,110.5-47.1,109.9-47z M113.7-50.6c-1.5-0.3-3,0.1-4.5-0.2
			c-0.9-0.2-1.8-0.4-2.6-0.8c-0.1,0-0.9-0.4-1.4-0.7c0,0,0-0.1,0-0.1c0,0,0-0.1,0-0.1c0-0.1-0.1-0.3-0.2-0.3c-0.3-0.1-0.4-0.2-0.7,0
			c-0.1,0.1-0.2,0.2-0.2,0.3c0.1,1.5,2.4,2.3,3.6,2.7c1.8,0.6,4.4,1.1,6.1,0C114.1-50,114.1-50.5,113.7-50.6z M142.1-55.1
			c-1.8,5-7.4,7.5-12.4,6.1c-5.3-1.5-8.6-6.5-10.1-11.6c-0.3-0.9-1.8-1.3-2.2-0.3c-2.9,6.5-11,6.7-14.1,0.2
			c-0.5-1.1-2.4-0.6-2.3,0.6c0.6,8.2-6.5,16-15,15.3c-8.6-0.7-14.2-9.3-13.8-17.4c0.1-1.3-1.8-1.2-1.9,0
			c-1.1,10.5-10,16.7-19.9,17.4c-0.6,0-0.8,1-0.1,1.1c9.1,1.7,17.3-4.5,20.6-12.6c1.8,7.1,7.6,13.3,15.3,13.9
			c8.5,0.7,16-6,17.3-14.1c4.2,4.2,11.1,3.9,14.8-1c2.2,5.4,6.4,10.1,12.4,11.1c6,1,11.9-2.4,13.8-8.1
			C144.9-56,142.6-56.6,142.1-55.1z M134-161.4c0-0.4-0.6-0.6-0.8-0.3c-0.7,0.8-1.1,1.8-1.9,2.5c-0.8,0.9-1.8,1.5-2.8,2
			c-0.6,0.2-0.3,1.1,0.3,0.9C130.9-157,133.7-158.9,134-161.4z M130.9-156.4c-0.6,0.2-0.4,1.2,0.3,1c1.3-0.3,2.5-0.9,3.5-1.7
			c1-0.7,2.2-1.8,2.5-3.1c0.1-0.6-0.6-1-1-0.6c-0.8,0.7-1.3,1.8-2.1,2.6C133.2-157.4,132.1-156.8,130.9-156.4z M150.3-119.6
			c-2.4-1.1-4.5-2.6-5.5-5.2c-0.2-0.5-0.9-0.3-0.8,0.2c0.7,2.8,3,5.4,6,5.8C150.5-118.7,150.6-119.4,150.3-119.6z M147-126.2
			c-0.6-1.1-0.9-2.3-0.9-3.6c0-0.5-0.8-0.6-0.9-0.1c-0.4,1.5-0.2,3,0.6,4.4c0.6,1.2,1.9,2.6,3.3,2.7c0.5,0,0.6-0.6,0.4-0.9
			C148.7-124.6,147.7-125.1,147-126.2z M31.8-158c9,2.2,18.6-2.4,22.4-10.7c3.7,12,21.1,12.9,25.5,1c2.9,5.4,8.6,9.1,15,8.3
			c5.7-0.7,10-4.8,11.8-10c1.6,5.5,6.8,10.1,12.3,11c6.9,1,13.3-3,16.1-9c1.2,2.6,3.6,4.5,6.8,4.9c4.3,0.5,8-2.2,9.9-5.9
			c1.9,3.8,6.6,6.8,10.7,5.9c0.9-0.2,1-1.7,0-1.9c-2.1-0.4-4-0.7-5.9-1.8c-2-1.3-3.1-3-4.2-5c-0.3-0.5-0.8-0.5-1.1-0.1
			c-0.3,0-0.5,0.2-0.6,0.5c-1.2,2.6-2.8,5-5.8,5.9c-4.4,1.4-8.6-1.8-8.5-6.4c0-1.2-1.8-1.4-2.1-0.3c-1.7,6.9-8.7,12.5-16,10.7
			c-7-1.7-9.6-8.1-10.5-14.5c-0.1-0.6-1.1-0.6-1.2,0c0,0.1,0,0.2-0.1,0.3c-0.4,0-0.8,0.3-0.9,0.9c-0.7,14.5-20.9,17.6-25,3.3
			c-0.3-0.9-1.7-1-1.9,0c-1.1,5.2-5.2,9.8-10.8,10.2c-6.4,0.4-11.7-4.5-12.5-10.7c-0.1-0.9-1.3-1.1-1.6-0.2
			c-3.4,8.7-12.1,14-21.5,12.5C31.4-159.4,31-158.2,31.8-158z M10.4-196.7c1.4,2.4,4.4,3.9,7.1,2.7c0.7-0.3,0.2-1.2-0.5-1.1
			c-2.3,0.4-4.6,0.1-6.1-1.9C10.7-197.3,10.2-197,10.4-196.7z"/>
		<path class="st1" d="M175.7,0h3.9c-0.7-1.4-1.2-2.8-1.6-4.3C177.4-2.8,176.6-1.3,175.7,0z"/>
		<path class="st2" d="M37.7-194.4c5,0.8,10-1.4,12.6-5.6h-3c-2.5,2.8-6.7,4-10.5,2.9c-2-0.6-3.7-1.6-5.1-2.9h-3.2
			C30.8-197.2,33.9-195,37.7-194.4z"/>
		<path class="st2" d="M0-194.1v2.6c4-1.6,7.3-4.7,9.1-8.6H6.3C4.8-197.5,2.6-195.3,0-194.1z"/>
		<path class="st2" d="M14.9-197.9c1.8,0.6,4.4,1.1,6.1,0c0.3-0.2,0.3-0.7-0.1-0.7c-1.5-0.3-3,0.1-4.5-0.2c-0.9-0.2-1.8-0.4-2.6-0.8
			c-0.1,0-0.4-0.2-0.8-0.4h-1.5C11.9-198.9,13.8-198.2,14.9-197.9z"/>
		<path class="st2" d="M17.5-193.9c0.7-0.3,0.2-1.2-0.5-1.1c-2.3,0.4-4.6,0.1-6.1-1.9c-0.2-0.3-0.7,0-0.5,0.3
			C11.8-194.3,14.8-192.8,17.5-193.9z"/>
		<path class="st2" d="M49.2-3.1c-0.4,1.2-1.1,2.2-1.9,3.1h3c0.5-0.8,0.9-1.6,1.2-2.5C52-4,49.7-4.6,49.2-3.1z"/>
		<path class="st2" d="M26.8-8.6c-0.3-0.9-1.8-1.3-2.2-0.3c-2.9,6.5-11,6.7-14.1,0.2C10-9.7,8.1-9.2,8.2-8.1C8.4-5.2,7.7-2.4,6.3,0
			h2.8c0.7-1.4,1.2-2.9,1.4-4.5c4.2,4.2,11.1,3.9,14.8-1c0.8,2,1.9,3.9,3.2,5.5h3.2C29.3-2.3,27.7-5.5,26.8-8.6z"/>
		<path class="st2" d="M12.3-0.4c0,0,0-0.1,0-0.1c0-0.1-0.1-0.3-0.2-0.3c-0.3-0.1-0.4-0.2-0.7,0c-0.1,0.1-0.2,0.2-0.2,0.3
			c0,0.2,0.1,0.4,0.2,0.5h1.5c-0.2-0.1-0.5-0.2-0.7-0.3C12.3-0.3,12.3-0.4,12.3-0.4z"/>
		<path class="st2" d="M157.6-192.7c-0.6,0-0.8,1-0.1,1.1c7.4,1.3,14.2-2.5,18.2-8.3h-2.6C169.3-195.7,163.6-193.2,157.6-192.7z"/>
		<path class="st2" d="M193.2-190.4c2.4,0.2,4.7-0.2,6.8-1.1v-2.6c-2,1-4.3,1.5-6.8,1.3c-4.9-0.4-8.7-3.3-11.1-7.2h-2.5
			C182.2-194.8,187.2-190.9,193.2-190.4z"/>
		<path class="st2" d="M184.8-190.3c0.7,0.4,1.3-0.7,0.6-1.1c-2.8-1.8-5.1-4.1-7.2-6.6c-0.5-0.5-1.4,0.2-1,0.8
			C179.2-194.3,181.9-192,184.8-190.3z"/>
		<path class="st2" d="M182.2-188.9c0.4,0,0.5-0.6,0.1-0.8c-1-0.4-1.9-0.6-2.9-1.1c-1-0.6-1.7-1.4-2.4-2.3c-0.3-0.4-0.9,0-0.6,0.4
			C177.5-190.9,179.9-188.7,182.2-188.9z"/>
		<path class="st2" d="M142.1-55.1c-1.8,5-7.4,7.5-12.4,6.1c-5.3-1.5-8.6-6.5-10.1-11.6c-0.3-0.9-1.8-1.3-2.2-0.3
			c-2.9,6.5-11,6.7-14.1,0.2c-0.5-1.1-2.4-0.6-2.3,0.6c0.6,8.2-6.5,16-15,15.3c-8.6-0.7-14.2-9.3-13.8-17.4c0.1-1.3-1.8-1.2-1.9,0
			c-1.1,10.5-10,16.7-19.9,17.4c-0.6,0-0.8,1-0.1,1.1c9.1,1.7,17.3-4.5,20.6-12.6c1.8,7.1,7.6,13.3,15.3,13.9
			c8.5,0.7,16-6,17.3-14.1c4.2,4.2,11.1,3.9,14.8-1c2.2,5.4,6.4,10.1,12.4,11.1c6,1,11.9-2.4,13.8-8.1
			C144.9-56,142.6-56.6,142.1-55.1z"/>
		<path class="st2" d="M78.4-43.4c-2.8-1.8-5.1-4.1-7.2-6.6c-0.5-0.5-1.4,0.2-1,0.8c1.9,2.9,4.6,5.1,7.5,6.9
			C78.5-41.8,79.1-42.9,78.4-43.4z"/>
		<path class="st2" d="M75.2-41.7c-1-0.4-1.9-0.6-2.9-1.1c-1-0.6-1.7-1.4-2.4-2.3c-0.3-0.4-0.9,0-0.6,0.4c1.1,1.9,3.4,4,5.8,3.8
			C75.5-41,75.6-41.5,75.2-41.7z"/>
		<path class="st2" d="M113.7-50.6c-1.5-0.3-3,0.1-4.5-0.2c-0.9-0.2-1.8-0.4-2.6-0.8c-0.1,0-0.9-0.4-1.4-0.7c0,0,0-0.1,0-0.1
			c0,0,0-0.1,0-0.1c0-0.1-0.1-0.3-0.2-0.3c-0.3-0.1-0.4-0.2-0.7,0c-0.1,0.1-0.2,0.2-0.2,0.3c0.1,1.5,2.4,2.3,3.6,2.7
			c1.8,0.6,4.4,1.1,6.1,0C114.1-50,114.1-50.5,113.7-50.6z"/>
		<path class="st2" d="M109.9-47c-2.3,0.4-4.6,0.1-6.1-1.9c-0.2-0.3-0.7,0-0.5,0.3c1.4,2.4,4.4,3.9,7.1,2.7
			C111.1-46.2,110.5-47.1,109.9-47z"/>
		<path class="st2" d="M177.5-10.2c-0.4,4.1-2,7.5-4.4,10.2h2.6c0.9-1.3,1.7-2.8,2.3-4.3c0.4,1.5,0.9,2.9,1.6,4.3h2.5
			c-1.9-3-2.8-6.7-2.7-10.2C179.5-11.4,177.6-11.4,177.5-10.2z"/>
		<path class="st2" d="M66.3-125.9c-0.3-0.7-1.5-0.9-1.7,0c-1.3,5.9-5.3,10.1-11.1,11.9c-0.8,0.3-0.5,1.4,0.4,1.3
			c5.7-1.2,10-5.2,11.8-10.5c3.9,6.3,12.3,5.5,17.2,0.2c2.6,9.3,13.4,15.8,22.3,9.4c0.6-0.4,0.3-1.6-0.5-1.3
			c-9,3.3-18.9,0.5-20.3-10.3c-0.1-0.9-1.2-1.3-1.8-0.5C78.6-119.9,69.4-117.8,66.3-125.9z"/>
		<path class="st2" d="M66.2-118.4c-0.1-0.2-0.3-0.3-0.5-0.1c-0.3,0.4-0.4,0.9-0.7,1.3c-0.3,0.6-0.7,1.1-1.1,1.5
			c-0.9,0.9-2,1.5-3.3,1.9c-0.5,0.1-0.4,0.9,0.1,0.9c1.5-0.1,2.9-0.8,3.9-1.8C65.5-115.6,66.5-117.2,66.2-118.4z"/>
		<path class="st2" d="M65.7-113c1.2-0.2,2.3-0.7,3.1-1.5c0.7-0.7,1.7-2.1,1.1-3.1c-0.1-0.3-0.5-0.3-0.8-0.1
			c-0.3,0.3-0.3,0.7-0.5,1.1c-0.1,0.5-0.4,0.9-0.6,1.3c-0.6,0.9-1.4,1.5-2.4,1.8C65.4-113.5,65.4-113,65.7-113z"/>
		<path class="st2" d="M30.9-54.6c0.6-0.4,0.3-1.6-0.5-1.3c-9,3.3-18.9,0.5-20.3-10.3c-0.1-0.9-1.2-1.3-1.8-0.5
			c-1.9,2.8-5.2,4.8-8.3,5.1v1.8C3.1-60,6.3-61.4,8.6-64C11.2-54.7,22-48.1,30.9-54.6z"/>
		<path class="st2" d="M192-66.9c-0.3-0.7-1.5-0.9-1.7,0c-1.3,5.9-5.3,10.1-11.1,11.9c-0.8,0.3-0.5,1.4,0.4,1.3
			c5.7-1.2,10-5.2,11.8-10.5c2,3.3,5.3,4.6,8.6,4.4v-1.8C196.8-61.3,193.6-62.7,192-66.9z"/>
		<path class="st2" d="M186.4-53.9c1.5-0.1,2.9-0.8,3.9-1.8c0.8-0.9,1.9-2.5,1.5-3.7c-0.1-0.2-0.3-0.3-0.5-0.1
			c-0.3,0.4-0.4,0.9-0.7,1.3c-0.3,0.6-0.7,1.1-1.1,1.5c-0.9,0.9-2,1.5-3.3,1.9C185.8-54.6,185.9-53.8,186.4-53.9z"/>
		<path class="st2" d="M191.4-54c1.2-0.2,2.3-0.7,3.1-1.5c0.7-0.7,1.7-2.1,1.1-3.1c-0.1-0.3-0.5-0.3-0.8-0.1
			c-0.3,0.3-0.3,0.7-0.5,1.1c-0.1,0.5-0.4,0.9-0.6,1.3c-0.6,0.9-1.4,1.5-2.4,1.8C191.1-54.4,191.1-53.9,191.4-54z"/>
		<path class="st2" d="M11.8-135c0.3-1.2-1.5-1.7-1.9-0.5c-1.5,5.4-5.6,8.4-9.9,8.9v2C5.2-125.1,10.2-128.5,11.8-135z"/>
		<path class="st2" d="M187-136.9c-0.1-0.9-1.3-0.8-1.7-0.2c-2.1,2.9-9.1,9.3-11.7,2.7c-0.4-0.9-2-0.9-1.9,0.3
			c0.5,6.6-5,13.7-12.1,12.5c-6.2-1-10.1-7.1-9.6-13.1c0.1-0.6-1-0.8-1.1-0.2c-1.5,7,3.2,14.4,10.5,15.4c7.2,1,13.2-4.8,14.2-11.5
			c3.4,3.2,8.8,0,12-3.5c1.9,7.1,8.3,10.5,14.4,9.9v-2C194.3-125.9,188.1-129.4,187-136.9z"/>
		<path class="st2" d="M186.9-125.4c1,0.8,2.3,1.8,3.6,1.8c0.5,0,0.6-0.6,0.2-0.9c-1-0.7-2.3-1-3.3-1.8c-1.1-0.8-2-1.8-2.6-3
			c-0.2-0.4-0.8,0-0.6,0.4C184.8-127.6,185.7-126.4,186.9-125.4z"/>
		<path class="st2" d="M185.2-124.9c-0.2-0.2-0.5,0.1-0.4,0.3c1.3,2,3.6,4.4,6.2,4.1c0.3,0,0.5-0.4,0.2-0.6c-1-0.6-2.1-0.8-3.2-1.4
			C187-123.1,185.9-123.9,185.2-124.9z"/>
		<path class="st2" d="M147-126.2c-0.6-1.1-0.9-2.3-0.9-3.6c0-0.5-0.8-0.6-0.9-0.1c-0.4,1.5-0.2,3,0.6,4.4c0.6,1.2,1.9,2.6,3.3,2.7
			c0.5,0,0.6-0.6,0.4-0.9C148.7-124.6,147.7-125.1,147-126.2z"/>
		<path class="st2" d="M144.8-124.8c-0.2-0.5-0.9-0.3-0.8,0.2c0.7,2.8,3,5.4,6,5.8c0.4,0.1,0.6-0.7,0.2-0.8
			C147.8-120.7,145.8-122.2,144.8-124.8z"/>
		<path class="st2" d="M31.8-158c9,2.2,18.6-2.4,22.4-10.7c3.7,12,21.1,12.9,25.5,1c2.9,5.4,8.6,9.1,15,8.3c5.7-0.7,10-4.8,11.8-10
			c1.6,5.5,6.8,10.1,12.3,11c6.9,1,13.3-3,16.1-9c1.2,2.6,3.6,4.5,6.8,4.9c4.3,0.5,8-2.2,9.9-5.9c1.9,3.8,6.6,6.8,10.7,5.9
			c0.9-0.2,1-1.7,0-1.9c-2.1-0.4-4-0.7-5.9-1.8c-2-1.3-3.1-3-4.2-5c-0.3-0.5-0.8-0.5-1.1-0.1c-0.3,0-0.5,0.2-0.6,0.5
			c-1.2,2.6-2.8,5-5.8,5.9c-4.4,1.4-8.6-1.8-8.5-6.4c0-1.2-1.8-1.4-2.1-0.3c-1.7,6.9-8.7,12.5-16,10.7c-7-1.7-9.6-8.1-10.5-14.5
			c-0.1-0.6-1.1-0.6-1.2,0c0,0.1,0,0.2-0.1,0.3c-0.4,0-0.8,0.3-0.9,0.9c-0.7,14.5-20.9,17.6-25,3.3c-0.3-0.9-1.7-1-1.9,0
			c-1.1,5.2-5.2,9.8-10.8,10.2c-6.4,0.4-11.7-4.5-12.5-10.7c-0.1-0.9-1.3-1.1-1.6-0.2c-3.4,8.7-12.1,14-21.5,12.5
			C31.4-159.4,31-158.2,31.8-158z"/>
		<path class="st2" d="M53-160.3c0.2-0.5-0.6-0.8-0.9-0.4c-1.7,2.4-4,4-7.1,4.1c-0.7,0-0.7,1,0,1C48.3-155.3,51.7-157.2,53-160.3z"
			/>
		<path class="st2" d="M56.2-159.7c-0.3,0.3-0.5,0.6-0.7,1c-0.3,0.5-0.7,0.9-1.2,1.3c-0.9,0.7-2,1.1-3.2,1.2c-0.5,0-0.5,0.8,0,0.8
			c1.4,0.1,2.8-0.2,3.9-0.9c0.9-0.6,2.2-1.8,2.1-3C57.1-159.8,56.6-160,56.2-159.7z"/>
		<path class="st2" d="M82.3-159.9c-1.1-0.7-1.9-1.5-2.5-2.6c-0.2-0.3-0.7,0-0.5,0.3c0.9,2,3.4,4.7,5.8,4.4c0.4-0.1,0.4-0.6,0.1-0.8
			C84.3-159.2,83.2-159.3,82.3-159.9z"/>
		<path class="st2" d="M79.5-157.6c1.6,2.1,4.5,3.6,7.1,2.6c0.5-0.2,0.5-1-0.1-1c-2.4,0.1-4.6-0.4-6.3-2.2
			C79.9-158.5,79.2-158,79.5-157.6z"/>
		<path class="st2" d="M133.2-161.7c-0.7,0.8-1.1,1.8-1.9,2.5c-0.8,0.9-1.8,1.5-2.8,2c-0.6,0.2-0.3,1.1,0.3,0.9
			c2.2-0.8,4.9-2.6,5.3-5.1C134-161.8,133.4-162,133.2-161.7z"/>
		<path class="st2" d="M131.2-155.4c1.3-0.3,2.5-0.9,3.5-1.7c1-0.7,2.2-1.8,2.5-3.1c0.1-0.6-0.6-1-1-0.6c-0.8,0.7-1.3,1.8-2.1,2.6
			c-0.9,0.8-2,1.5-3.1,1.9C130.3-156.1,130.5-155.2,131.2-155.4z"/>
	</g>
</pattern>
<g>
	<pattern  id="SVGID_1_" xlink:href="#Nueva_muestra_de_motivo_20" patternTransform="matrix(1 0 0 1 -75 -75)">
	</pattern>
	<rect class="st3" width="400" height="400.4"/>
</g>
</svg>
